<svg aria-hidden="true" style="position:absolute;width:0;height:0" xmlns="http://www.w3.org/2000/svg" overflow="hidden"><defs><symbol id="client6" viewBox="0 0 67 32"><path d="M33.724 15.224a2.095 2.095 0 01-.43-1.414v-2.05c0-.628.142-1.106.428-1.433s.775-.489 1.469-.488c.652 0 1.115.139 1.389.417.299.355.444.789.411 1.226v.482h-1.167v-.488a2.476 2.476 0 00-.034-.478.467.467 0 00-.167-.284.681.681 0 00-.423-.111.711.711 0 00-.444.117.544.544 0 00-.193.313 2.398 2.398 0 00-.046.507v2.488c-.018.24.033.48.15.699.058.074.139.132.233.169s.198.05.301.039a.632.632 0 00.413-.113.505.505 0 00.174-.302c.027-.165.039-.332.036-.498v-.505h1.167v.461c.033.456-.109.909-.403 1.289-.268.305-.725.457-1.396.457s-1.179-.163-1.466-.501zM38.583 15.245c-.295-.319-.442-.784-.442-1.4v-2.157c0-.609.147-1.07.442-1.383s.788-.469 1.478-.467c.686 0 1.177.156 1.471.467.295.313.444.774.444 1.383v2.157c0 .609-.15 1.076-.449 1.397s-.788.482-1.466.482c-.679 0-1.181-.163-1.478-.48zm2.022-.518c.106-.2.154-.419.14-.638v-2.641a1.17 1.17 0 00-.138-.626c-.059-.075-.142-.135-.238-.172s-.203-.05-.308-.037c-.105-.013-.212 0-.308.037s-.18.096-.24.172a1.15 1.15 0 00-.14.626v2.653c-.015.219.033.439.14.638.068.067.152.121.246.158a.82.82 0 00.6 0 .732.732 0 00.246-.158v-.012zM43.38 9.901h1.256l.945 3.979.966-3.979h1.222l.123 5.743h-.904l-.097-3.992-.932 3.992h-.725l-.966-4.006-.089 4.006h-.913l.114-5.743zM49.301 9.901h1.957c1.127 0 1.691.544 1.691 1.631 0 1.041-.593 1.561-1.78 1.56h-.667v2.553h-1.208l.007-5.743zm1.672 2.455c.119.013.24.004.355-.028s.22-.084.309-.154a.928.928 0 00.174-.649 1.801 1.801 0 00-.058-.521c-.017-.057-.047-.111-.089-.158s-.093-.086-.153-.116a1.262 1.262 0 00-.539-.092h-.469v1.716h.469zM54.691 9.901h1.297l1.331 5.743h-1.126l-.263-1.324h-1.157l-.271 1.324h-1.143l1.331-5.743zm1.109 3.754l-.452-2.411-.452 2.411h.903zM58.395 9.901h.846l1.619 3.276V9.901h1.003v5.743h-.804l-1.628-3.42v3.42h-1.036l.002-5.743zM64.209 13.455l-1.346-3.546h1.133l.821 2.277.771-2.277h1.109l-1.329 3.546v2.19h-1.16v-2.19zM35.589 18.156v.3h-.986v2.334h-.413v-2.334h-.99v-.3h2.389zM38.679 20.79h-.319a.139.139 0 01-.089-.025.133.133 0 01-.053-.06l-.285-.626h-1.367l-.285.626a.172.172 0 01-.044.071.152.152 0 01-.089.025h-.319l1.208-2.634h.42l1.222 2.624zm-2-.978h1.14l-.483-1.072a1.75 1.75 0 01-.089-.248c-.017.05-.031.098-.046.14l-.044.11-.478 1.07zM40.762 20.532c.076.003.151.003.227 0a1.72 1.72 0 00.367-.079c.053-.019.106-.042.162-.065v-.592h-.483c-.012.001-.024-.001-.035-.005s-.021-.009-.03-.016a.062.062 0 01-.024-.048v-.202h.937v1.01a1.842 1.842 0 01-.51.215c-.099.025-.2.043-.302.054a3.775 3.775 0 01-.353.017 1.842 1.842 0 01-.609-.098 1.485 1.485 0 01-.483-.275 1.293 1.293 0 01-.312-.417 1.316 1.316 0 01-.111-.547 1.352 1.352 0 01.109-.551c.069-.156.176-.298.312-.417.138-.119.302-.212.483-.273.207-.067.426-.1.647-.098.112 0 .225.008.336.023a1.65 1.65 0 01.53.171c.074.041.144.087.21.138l-.116.163c-.009.015-.023.027-.039.036s-.036.014-.055.014a.16.16 0 01-.075-.021 1.582 1.582 0 01-.118-.063 1.02 1.02 0 00-.162-.071 1.508 1.508 0 00-.529-.081 1.407 1.407 0 00-.466.073 1.026 1.026 0 00-.355.209.918.918 0 00-.225.328 1.23 1.23 0 000 .878.938.938 0 00.242.332c.099.09.219.162.353.209.154.046.316.063.478.052zM44.612 20.49h1.319v.3h-1.722v-2.634h.413l-.01 2.334zM47.304 20.79h-.413v-2.634h.413v2.634zM48.84 18.168a.189.189 0 01.063.048l1.766 1.986a.737.737 0 010-.094v-1.962h.36v2.645h-.208a.19.19 0 01-.089-.015.23.23 0 01-.065-.05l-1.764-1.984v2.048h-.345v-2.634h.215c.023 0 .046.004.068.012zM54.07 18.156v.29h-1.464v.87h1.186v.279h-1.186v.899h1.464v.29h-1.889v-2.628h1.889zM10.782 1.888l18.343 4.497v15.757l-18.343-4.494V1.889zM9.605.545v17.867l20.694 5.074V5.621L9.605.545z"/><path d="M20.696 31.781L0 26.702V8.836l20.696 5.076V31.78z"/><path d="M9.948 1.686l18.104 4.44-7.699 6.649L2.247 8.333l7.702-6.647zM9.605.545L0 8.837l20.696 5.076 9.603-8.292L9.605.545zM21.861 30.776l8.438-7.287-8.438-2.071v9.358z"/></symbol><symbol id="client1" viewBox="0 0 28 32"><path d="M4.085 0l4.771 4.517L0 4.512v21.915h23.149v-8.379l4.766 4.512V.001H4.085zm18.854 17.517L9.411 4.71h13.528v12.807zm-4.2 5.704H3.663V8.482h1.066v13.741h14.01v.998zM7.223 29.344l-.557 1.147-.557-1.147h-.467l.813 1.529v.891h.422v-.891l.811-1.529h-.465zm.7 2.42l.196-.563h.938l.198.563h.439l-.916-2.42h-.377l-.914 2.42h.437zm.665-1.906l.351 1.004h-.701l.351-1.004zm2.217.946a.55.55 0 00-.091.307c0 .204.072.37.214.497.144.126.336.189.575.189s.445-.065.618-.194l.136.161h.469l-.356-.421c.14-.191.209-.435.209-.733h-.351a.973.973 0 01-.101.444l-.467-.552.165-.12a.905.905 0 00.251-.253.532.532 0 00.076-.279.496.496 0 00-.17-.384.61.61 0 00-.432-.156.641.641 0 00-.465.166.591.591 0 00-.173.449c0 .078.018.158.055.241.038.083.104.184.198.303-.18.129-.3.24-.361.334zm1.092.535a.616.616 0 01-.382.136c-.121 0-.217-.035-.289-.105s-.108-.161-.108-.273c0-.13.067-.245.2-.346l.052-.037.529.623zm-.434-1.072c-.114-.141-.171-.258-.171-.351 0-.081.023-.148.07-.201s.109-.08.188-.08c.073 0 .133.023.181.068a.21.21 0 01.072.161.298.298 0 01-.103.234l-.052.042-.184.126zm3.94 1.314c.166-.145.262-.347.286-.605h-.419c-.022.173-.075.296-.158.371s-.207.111-.372.111a.468.468 0 01-.412-.206c-.093-.137-.14-.337-.14-.598v-.214c.002-.258.052-.454.15-.587a.493.493 0 01.422-.201c.157 0 .277.039.357.116.082.076.133.202.153.376h.419c-.027-.265-.121-.47-.284-.615s-.378-.218-.645-.218a.978.978 0 00-.525.141c-.151.094-.267.228-.347.402s-.121.375-.121.603v.226c.003.223.045.418.125.587s.193.299.339.391a.949.949 0 00.51.136c.276 0 .497-.072.663-.216zm2.472-.339c.082-.18.123-.388.123-.625v-.135a1.462 1.462 0 00-.126-.62.924.924 0 00-.878-.552.957.957 0 00-.525.145.939.939 0 00-.354.414 1.484 1.484 0 00-.125.625v.136c.001.232.043.436.126.613a.962.962 0 00.356.411.98.98 0 00.525.143.97.97 0 00.525-.143.932.932 0 00.352-.412zm-.451-1.368c.102.143.153.349.153.617v.126c0 .273-.05.48-.151.622a.493.493 0 01-.429.213.503.503 0 01-.432-.218c-.103-.145-.155-.351-.155-.617v-.14c.002-.26.054-.462.156-.603a.496.496 0 01.427-.214c.186 0 .33.072.43.214z"/></symbol><symbol id="client2" viewBox="0 0 25 32"><path d="M10.531 1.806h-.084a9.985 9.985 0 00-.388-.014h-.28c-.244 0-.494.006-.741.019a.523.523 0 00-.056 0 17.4 17.4 0 00-6.471 1.651l-.266.128v13.625l.623-.211a23.32 23.32 0 011.731-.513 21.155 21.155 0 014.982-.662v1.79a15.56 15.56 0 00-.655.019h-.051a19.948 19.948 0 00-3.833.588c-1.59.398-3.124.996-4.566 1.779V2.53A18.3 18.3 0 015.266.582 18.343 18.343 0 019.781 0h.263c.314.008.621.022.909.044.759.053 1.511.173 2.249.358v1.762a13.947 13.947 0 00-2.179-.329l-.045-.004c-.152-.013-.304-.026-.446-.026zm3.102 1.801c.391.03.796.044 1.205.044a19.352 19.352 0 004.747-.609c1.589-.4 3.123-.998 4.564-1.781v17.163a18.313 18.313 0 01-4.792 1.948 18.486 18.486 0 01-4.515.581 13.778 13.778 0 01-3.425-.404V3.274c.265.061.537.117.814.164.455.077.934.133 1.401.167zm8.734.133l-.623.21c-.573.192-1.15.365-1.731.518a21.098 21.098 0 01-5.173.663c-.406 0-.78-.011-1.141-.034l-.497-.033v14.017l.427.038c.395.034.803.052 1.214.052a16.573 16.573 0 004.074-.527 17.107 17.107 0 003.184-1.144l.266-.128V3.742zM1.684 25.977a.912.912 0 00-.693-.28 1.034 1.034 0 00-.4.075.91.91 0 00-.512.518 1.023 1.023 0 00-.072.387v2.335c-.006.165.026.328.092.479.055.12.135.226.233.313a.815.815 0 00.321.166c.114.032.231.048.349.049a.972.972 0 00.892-.61.951.951 0 00.075-.372v-.261h-.61v.208a.528.528 0 01-.036.208.359.359 0 01-.089.131.365.365 0 01-.128.067.425.425 0 01-.128.022.314.314 0 01-.286-.125.548.548 0 01-.081-.313v-2.177a.738.738 0 01.075-.349.31.31 0 01.299-.141.33.33 0 01.272.131c.068.09.104.2.101.313v.202h.604v-.238a1.093 1.093 0 00-.279-.737zM5.31 25.95a1.051 1.051 0 00-1.38 0 .961.961 0 00-.237.327 1.099 1.099 0 00-.089.452v2.239a1.08 1.08 0 00.089.459c.055.12.136.227.237.313a.94.94 0 00.322.197 1.028 1.028 0 00.728 0c.121-.044.233-.111.33-.197a.948.948 0 00.23-.313 1.08 1.08 0 00.089-.459v-2.239a1.08 1.08 0 00-.089-.452 1.015 1.015 0 00-.23-.327zm-.285 3.019a.405.405 0 01-.121.324.445.445 0 01-.574 0 .397.397 0 01-.121-.324V26.73a.405.405 0 01.121-.324.445.445 0 01.574 0 .397.397 0 01.121.324v2.239zM10.072 29.969V25.73h-.587l-.771 2.244h-.011l-.777-2.244h-.581v4.239h.606V27.39h.011l.593 1.823h.302l.598-1.823h.011v2.579h.606zM13.513 26.027a.84.84 0 00-.343-.232 1.363 1.363 0 00-.439-.066h-.9v4.239h.604v-1.656h.311c.188.009.376-.031.545-.116a.882.882 0 00.332-.324 1.02 1.02 0 00.139-.369c.024-.16.035-.321.033-.482a2.421 2.421 0 00-.059-.606.898.898 0 00-.223-.39zm-.312 1.292a.547.547 0 01-.056.221.346.346 0 01-.156.149.619.619 0 01-.285.053h-.275v-1.441h.311a.578.578 0 01.272.053.349.349 0 01.142.157.62.62 0 01.053.236v.282c0 .099.006.2 0 .291h-.006zM16.374 25.73h-.495l-.934 4.239h.604l.177-.911h.823l.177.911h.604l-.957-4.239zm-.557 2.751l.297-1.537h.011l.296 1.537h-.604zM20.277 28.284h-.011l-.912-2.554h-.581v4.239h.604V27.42h.012l.923 2.549h.568V25.73h-.604v2.554zM23.968 25.73l-.486 1.685h-.012l-.486-1.685h-.64l.83 2.447v1.792h.604v-1.792l.83-2.447h-.64zM0 31.166h.291v.817h.198v-.817h.29v-.167H.001v.167zM2.447 30.998l-.381.984h.21l.081-.224h.392l.084.224h.215l-.391-.984h-.21zm-.031.595l.134-.365.134.365h-.268zM4.866 31.62h.227v.127a.382.382 0 01-.234.083.244.244 0 01-.209-.093.411.411 0 01-.073-.257c0-.219.095-.329.283-.329a.206.206 0 01.222.157l.195-.038c-.042-.192-.181-.289-.417-.289a.495.495 0 00-.344.127.494.494 0 00-.141.379.532.532 0 00.126.369.477.477 0 00.374.144.59.59 0 00.417-.157v-.388h-.427v.166zM7.337 30.998h-.199v.984h.69v-.167h-.49v-.817zM9.426 30.998h-.199v.984h.199v-.984zM11.469 31.656l-.403-.657h-.193v.984h.185v-.643l.395.643h.198v-.984h-.182v.657zM13.315 31.549h.49v-.167h-.49v-.216h.528v-.167h-.727v.984h.747v-.167h-.548v-.266zM17.792 31.387h-.388v-.388h-.198v.984h.198v-.43h.388v.43h.198v-.984h-.198v.388zM19.649 31.549h.492v-.167h-.492v-.216h.529v-.167h-.727v.984h.746v-.167h-.548v-.266zM22.168 31.549c.171-.027.258-.117.258-.274a.236.236 0 00-.096-.219.553.553 0 00-.288-.058h-.417v.984h.198v-.412h.039a.261.261 0 01.123.022.21.21 0 01.07.072l.215.313h.237l-.12-.192a.685.685 0 00-.218-.236zm-.199-.136h-.146v-.247h.156a.526.526 0 01.201.023c.014.013.026.029.033.046a.133.133 0 01-.005.111.128.128 0 01-.037.043.547.547 0 01-.201.023zM24.067 31.549h.49v-.167h-.49v-.216h.529v-.167h-.729v.984h.747v-.167h-.548v-.266z"/></symbol><symbol id="client3" viewBox="0 0 34 32"><path d="M5.643 31.315a.095.095 0 01.064.025l.166.159a1.373 1.373 0 01-.467.302c-.21.076-.435.113-.663.108a1.77 1.77 0 01-.623-.101 1.37 1.37 0 01-.469-.285 1.277 1.277 0 01-.303-.44 1.472 1.472 0 01-.106-.565 1.31 1.31 0 01.436-1.007c.142-.124.312-.222.499-.287.205-.069.422-.103.642-.101.204-.004.407.027.596.092.165.062.316.148.447.255l-.139.17a.173.173 0 01-.035.031.097.097 0 01-.056.013.136.136 0 01-.06-.018l-.075-.045-.104-.058a1.3 1.3 0 00-.139-.056 1.46 1.46 0 00-.436-.063 1.328 1.328 0 00-.461.076c-.136.048-.26.121-.361.213a.987.987 0 00-.235.339 1.155 1.155 0 00-.085.448 1.17 1.17 0 00.085.455.994.994 0 00.231.338.938.938 0 00.345.209c.136.049.281.073.428.072.085.001.17-.004.253-.014a1.01 1.01 0 00.548-.233.127.127 0 01.079-.029zM10.441 30.517c.003.192-.035.382-.112.561-.068.163-.174.311-.313.436s-.306.222-.491.286a2.02 2.02 0 01-1.263 0 1.454 1.454 0 01-.488-.287 1.288 1.288 0 01-.316-.44 1.462 1.462 0 010-1.125c.071-.164.178-.314.316-.442.139-.12.305-.214.488-.276a1.992 1.992 0 011.263 0c.185.065.351.163.49.287.137.125.243.273.314.435.077.181.115.372.112.565zm-.436 0a1.186 1.186 0 00-.079-.451.941.941 0 00-.222-.338.971.971 0 00-.351-.213 1.456 1.456 0 00-.918 0 .971.971 0 00-.351.213.897.897 0 00-.224.338 1.322 1.322 0 000 .903.926.926 0 00.575.549 1.5 1.5 0 00.918 0 .98.98 0 00.351-.211.933.933 0 00.222-.338c.056-.145.082-.298.079-.451zM13.715 30.99l.044.101c.017-.036.031-.069.048-.101a.95.95 0 01.054-.099l1.062-1.677c.021-.029.039-.047.06-.052a.283.283 0 01.087-.009h.314v2.727h-.372v-2.005-.085a.737.737 0 010-.094l-1.068 1.7c-.014.025-.035.047-.063.062s-.059.023-.091.023h-.06c-.032 0-.064-.007-.091-.022s-.049-.037-.062-.062l-1.099-1.711v2.189h-.359v-2.722h.314a.28.28 0 01.087.009c.026.011.046.03.058.052l1.084 1.678a.662.662 0 01.054.097zM17.71 30.855v1.021h-.415v-2.723h.926c.175-.003.349.017.517.059.134.033.259.091.366.17a.713.713 0 01.208.267.825.825 0 01.071.348.771.771 0 01-.301.621 1.062 1.062 0 01-.368.18 1.757 1.757 0 01-.501.063l-.503-.007zm0-.293h.503a1.2 1.2 0 00.322-.041.71.71 0 00.233-.117.526.526 0 00.191-.409c.005-.076-.009-.151-.042-.222s-.082-.134-.145-.186a.889.889 0 00-.559-.146h-.503v1.122zM23.294 31.88h-.328a.158.158 0 01-.091-.025.17.17 0 01-.054-.063l-.282-.659H21.12l-.293.659a.152.152 0 01-.145.088h-.328l1.246-2.727h.432l1.263 2.727zm-2.057-1.013h1.172l-.494-1.11a1.746 1.746 0 01-.093-.256l-.048.143a1.122 1.122 0 01-.046.116l-.49 1.108zM25.089 29.165a.178.178 0 01.062.049l1.818 2.056v-.096-2.021h.372v2.727h-.208a.201.201 0 01-.085-.016.24.24 0 01-.067-.05l-1.816-2.054a.737.737 0 010 .094v2.027h-.372v-2.727h.22a.191.191 0 01.075.013zM30.402 30.795v1.083h-.415v-1.083l-1.149-1.642h.372a.15.15 0 01.089.023.23.23 0 01.056.061l.719 1.059a1.064 1.064 0 01.127.242l.054-.117a.975.975 0 01.071-.125l.708-1.067a.295.295 0 01.054-.058.14.14 0 01.089-.027h.376l-1.151 1.65zM13.51 24.576c.181.02.364.036.548.051 2.803-1.089 5.174-2.873 6.817-5.126s2.485-4.878 2.421-7.546l-3.089-2.684c.628 2.84.334 5.776-.849 8.479s-3.208 5.067-5.849 6.827z"/><path d="M12.407 24.451l.083.014c2.822-1.754 4.974-4.203 6.176-7.03s1.402-5.904.571-8.83l-4.4-3.823c1.78 3.142 2.496 6.659 2.066 10.141s-1.989 6.786-4.496 9.528zM27.328 15.106c-.747 2.931-2.563 5.574-5.177 7.537a16.49 16.49 0 01-2.46 1.534c2.128-.544 4.085-1.504 5.718-2.809s2.9-2.917 3.703-4.714l-1.784-1.549z"/><path d="M26.628 14.674l-2.541-2.207c-.049 2.517-.872 4.976-2.385 7.123s-3.66 3.902-6.217 5.084h.012c.57 0 1.139-.03 1.705-.088 2.39-.848 4.502-2.196 6.147-3.926s2.771-3.785 3.278-5.985zM12.774 3.17L9.743.533c-2.709.91-5.04 2.509-6.686 4.588S.526 9.663.517 12.187c.01 2.789 1.09 5.495 3.07 7.69s4.745 3.754 7.859 4.43c2.78-2.942 4.407-6.579 4.646-10.38s-.924-7.569-3.319-10.757zM33.63 14.268c-.011-3.309-1.529-6.479-4.221-8.818s-6.342-3.658-10.15-3.668a16.144 16.144 0 00-5.146.832L32.67 18.737a10.94 10.94 0 00.96-4.469z"/></symbol><symbol id="client5" viewBox="0 0 43 32"><path d="M3.239 26.373a.98.98 0 01.25.665c.008.158-.022.315-.089.46s-.169.275-.298.38a1.788 1.788 0 01-1.125.307H0V23.97h1.937c.382-.023.761.076 1.073.28.125.096.224.217.289.354s.095.286.086.435a.923.923 0 01-.225.645 1.06 1.06 0 01-.589.329c.262.044.499.172.668.36zM.92 25.737h.828a.835.835 0 00.526-.14c.062-.052.111-.116.141-.187s.043-.148.036-.225c.006-.076-.007-.153-.037-.224s-.078-.135-.138-.188a.858.858 0 00-.542-.142H.92v1.106zm1.435 1.616c.066-.053.119-.119.153-.193s.049-.155.043-.235c.005-.081-.01-.163-.045-.238s-.088-.142-.155-.195a.907.907 0 00-.562-.152H.921v1.159H1.8a.93.93 0 00.556-.146zM7.197 28.185L6.12 26.538h-.405v1.647h-.927V23.97h1.754c.442-.028.879.1 1.221.358.245.229.393.53.417.85s-.078.637-.287.894a1.46 1.46 0 01-.837.428l1.147 1.684H7.195zm-1.482-2.222h.758c.526 0 .789-.213.789-.638a.586.586 0 00-.193-.473.87.87 0 00-.596-.171h-.767l.009 1.283zM12.262 27.337h-1.847l-.326.848h-.972l1.696-4.168h1.05l1.689 4.168h-.972l-.319-.848zm-.247-.639l-.675-1.779-.675 1.779h1.349zM18.602 28.185h-.92l-2.062-2.867v2.867h-.918V23.97h.918l2.062 2.883V23.97h.92v4.215zM23.852 27.176c-.19.318-.48.577-.832.743-.4.185-.845.276-1.293.266H20.09V23.97h1.637c.448-.011.891.078 1.293.259.352.163.642.419.832.735.189.343.288.722.288 1.106s-.099.763-.288 1.106zm-1.053-.101c.263-.28.407-.637.407-1.006s-.144-.726-.407-1.006a1.692 1.692 0 00-1.152-.358h-.639v2.729h.639a1.7 1.7 0 001.152-.358zM12.838.522s11.873 4.104 11.621 10.043V20.61s-11.864-4.106-11.617-10.045L12.837.522zM35.037 18.259c2.242-1.413 4.836-2.288 7.544-2.545v-3.145c-3.12 1.101-5.766 3.097-7.544 5.69z"/><path d="M33.69 19.206c1.835-3.384 5.017-5.995 8.891-7.296V2.849S25.672 8.695 26.03 17.153v14.302s.753-.262 1.939-.752c0-.457 0-.918.054-1.382.35-3.926 2.389-7.565 5.668-10.115z"/><path d="M32.081 24.52a13.62 13.62 0 01.592-2.928c-2.042 2.203-3.278 4.936-3.536 7.815-.025.272-.038.544-.045.824a50.77 50.77 0 003.252-1.569 13.564 13.564 0 01-.263-4.141zM32.754 24.571a12.973 12.973 0 00.209 3.75c4.62-2.531 9.811-6.442 9.611-11.168v-.412c-3.301.338-6.389 1.659-8.79 3.76a13.125 13.125 0 00-1.03 4.069z"/></symbol><symbol id="client4" viewBox="0 0 85 42" xmlns="http://www.w3.org/2000/svg"><path d="M13.146 13.103h-.003c-2.398 0-4.342 1.727-4.342 3.859v.002c0 2.131 1.944 3.859 4.342 3.859h.003c2.398 0 4.342-1.728 4.342-3.859v-.002c0-2.132-1.944-3.86-4.342-3.86zM45.195 11.87c-.007-2.96-1.333-5.798-3.688-7.891C39.153 1.886 35.96.707 32.63.7c-3.332.005-6.526 1.184-8.882 3.277-2.356 2.094-3.683 4.931-3.69 7.892v16.323s25.134-2.488 25.137-16.32v-.003zM0 33.55c.006 2.06.93 4.033 2.568 5.49 1.638 1.456 3.859 2.277 6.176 2.283 2.317-.006 4.537-.827 6.176-2.283 1.638-1.456 2.562-3.429 2.568-5.488V22.194S0 23.927 0 33.55zm8.744 2.034c-.453 0-.895-.119-1.272-.343a2.107 2.107 0 01-.843-.913 1.825 1.825 0 01-.13-1.175c.088-.395.306-.758.626-1.042a2.39 2.39 0 011.172-.557 2.558 2.558 0 011.323.115c.419.154.777.415 1.028.75.252.335.386.728.386 1.13.001.268-.057.534-.172.782a2.036 2.036 0 01-.496.662c-.212.19-.465.34-.744.443a2.54 2.54 0 01-.878.156v-.008zM26.418 34.464H24.73v1.743h-.879V31.94h2.778v.712H24.73v1.102h1.688v.709zm4.224-.293c0 .42-.074.788-.222 1.104-.149.317-.362.56-.64.733a1.755 1.755 0 01-.948.258c-.354 0-.67-.085-.947-.255a1.695 1.695 0 01-.644-.727 2.511 2.511 0 01-.232-1.09v-.21c0-.42.076-.79.226-1.108.152-.32.366-.566.642-.735.277-.172.593-.258.949-.258.355 0 .67.086.946.258.277.17.491.415.642.735.152.318.228.686.228 1.104v.19zm-.89-.194c0-.447-.08-.787-.24-1.02a.783.783 0 00-.686-.348.782.782 0 00-.683.346c-.16.229-.241.564-.243 1.008v.208c0 .435.08.773.24 1.013.16.24.39.36.692.36a.775.775 0 00.68-.345c.158-.232.238-.57.24-1.014v-.208zm3.74 1.11a.447.447 0 00-.175-.38c-.117-.09-.328-.184-.633-.281a4.575 4.575 0 01-.723-.293c-.485-.262-.727-.615-.727-1.058 0-.23.064-.436.193-.615.131-.182.318-.323.56-.425.244-.101.518-.152.82-.152.305 0 .576.055.815.167.238.11.423.264.553.466.133.2.2.43.2.685h-.88c0-.195-.06-.347-.184-.454-.123-.11-.296-.164-.518-.164-.215 0-.382.046-.501.138a.426.426 0 00-.179.357c0 .139.07.255.208.349.14.093.347.181.618.263.5.15.864.337 1.093.56.228.222.343.5.343.832 0 .369-.14.66-.42.87-.279.209-.654.314-1.127.314-.328 0-.627-.06-.897-.18a1.438 1.438 0 01-.618-.494 1.27 1.27 0 01-.21-.727h.881c0 .47.281.706.844.706.209 0 .372-.042.49-.126a.418.418 0 00.175-.357zm4.691-2.434h-1.306v3.554h-.88v-3.554H34.71v-.712h3.474v.712zm3.07 1.705h-1.687v1.143h1.98v.706h-2.859V31.94h2.854v.712h-1.975v1.017h1.688v.688zm2.388.287h-.7v1.562h-.879V31.94h1.585c.504 0 .893.113 1.166.337.274.225.41.542.41.952 0 .291-.063.535-.19.73a1.282 1.282 0 01-.571.463l.922 1.743v.04h-.943l-.8-1.56zm-.7-.712h.71c.22 0 .39-.055.512-.166a.607.607 0 00.181-.466c0-.202-.057-.36-.172-.475-.114-.115-.288-.173-.525-.173h-.706v1.28zm5.326.771v1.503h-.879V31.94h1.664c.32 0 .602.059.844.176.244.117.432.284.563.501.13.215.196.46.196.735 0 .418-.144.748-.43.99-.286.24-.681.361-1.187.361h-.77zm0-.712h.785c.233 0 .41-.055.53-.164.124-.11.185-.266.185-.469a.704.704 0 00-.184-.507c-.123-.128-.293-.195-.51-.199h-.806v1.34zm5.56.366H52.14v1.143h1.98v.706h-2.859V31.94h2.854v.712H52.14v1.017h1.688v.688zm4.079-1.705h-1.307v3.554h-.879v-3.554h-1.289v-.712h3.475v.712zm3.07 1.705H59.29v1.143h1.98v.706h-2.86V31.94h2.854v.712H59.29v1.017h1.687v.688zm2.388.287h-.7v1.562h-.88V31.94h1.586c.504 0 .892.113 1.166.337.273.225.41.542.41.952 0 .291-.064.535-.19.73a1.283 1.283 0 01-.572.463l.923 1.743v.04h-.943l-.8-1.56zm-.7-.712h.709c.22 0 .391-.055.512-.166a.607.607 0 00.182-.466c0-.202-.057-.36-.173-.475-.113-.115-.288-.173-.524-.173h-.706v1.28zm5.165 1.155a.447.447 0 00-.176-.381c-.117-.09-.328-.184-.633-.281a4.57 4.57 0 01-.723-.293c-.485-.262-.727-.615-.727-1.058 0-.23.065-.436.193-.615.131-.182.318-.323.56-.425.244-.101.518-.152.82-.152.305 0 .576.055.815.167.238.11.423.264.553.466.133.2.2.43.2.685h-.88c0-.195-.06-.347-.184-.454-.123-.11-.296-.164-.518-.164-.215 0-.382.046-.501.138a.426.426 0 00-.18.357c0 .139.07.255.209.349.14.093.347.181.618.263.5.15.864.337 1.093.56.228.222.343.5.343.832 0 .369-.14.66-.42.87-.279.209-.655.314-1.127.314-.328 0-.627-.06-.897-.18a1.438 1.438 0 01-.618-.494 1.27 1.27 0 01-.21-.727h.881c0 .47.281.706.844.706.209 0 .372-.042.489-.126a.418.418 0 00.176-.357z"/></symbol></defs></svg>